{
  "accessors": [
    {
      "bufferView": 2,
      "componentType": 5126,
      "count": 4,
      "max": [
        64.197906494140625,
        0,
        77.48480224609375
      ],
      "min": [
        35.762275695800781,
        -0.18935585021972656,
        22.515192031860352
      ],
      "type": "VEC3"
    },
    {
      "bufferView": 2,
      "byteOffset": 48,
      "componentType": 5126,
      "count": 4,
      "max": [
        -0.0033316167537122965,
        0.9999929666519165,
        0.0017226825002580881
      ],
      "min": [
        -0.0033316167537122965,
        0.9999929666519165,
        0.0017226825002580881
      ],
      "type": "VEC3"
    },
    {
      "bufferView": 3,
      "componentType": 5126,
      "count": 4,
      "max": [
        -0.99999034404754639,
        -0.003326615784317255,
        -2.6374249500804581e-05,
        1
      ],
      "min": [
        -0.99999445676803589,
        -0.0033315764740109444,
        -0.0028979401104152203,
        1
      ],
      "type": "VEC4"
    },
    {
      "bufferView": 1,
      "componentType": 5126,
      "count": 4,
      "max": [
        0.98877918720245361,
        0.99480319023132324
      ],
      "min": [
        0.011496782302856445,
        0.0055675208568572998
      ],
      "type": "VEC2"
    },
    {
      "bufferView": 0,
      "componentType": 5125,
      "count": 6,
      "max": [
        3
      ],
      "min": [
        0
      ],
      "type": "SCALAR"
    },
    {
      "bufferView": 2,
      "byteOffset": 96,
      "componentType": 5126,
      "count": 2538,
      "max": [
        10.487659454345703,
        17.778999328613281,
        41.132316589355469
      ],
      "min": [
        -10.487659454345703,
        8.9942426681518555,
        -40.752922058105469
      ],
      "type": "VEC3"
    },
    {
      "bufferView": 2,
      "byteOffset": 30552,
      "componentType": 5126,
      "count": 2538,
      "max": [
        0.99974989891052246,
        1,
        1
      ],
      "min": [
        -0.99978733062744141,
        -1,
        -0.99955588579177856
      ],
      "type": "VEC3"
    },
    {
      "bufferView": 3,
      "byteOffset": 64,
      "componentType": 5126,
      "count": 2538,
      "max": [
        1,
        1,
        1,
        1
      ],
      "min": [
        -1,
        -0.99990648031234741,
        -1,
        -1
      ],
      "type": "VEC4"
    },
    {
      "bufferView": 1,
      "byteOffset": 32,
      "componentType": 5126,
      "count": 2538,
      "max": [
        1,
        1
      ],
      "min": [
        0,
        0
      ],
      "type": "VEC2"
    },
    {
      "bufferView": 1,
      "byteOffset": 20336,
      "componentType": 5126,
      "count": 2538,
      "max": [
        1,
        1
      ],
      "min": [
        0,
        0
      ],
      "type": "VEC2"
    },
    {
      "bufferView": 0,
      "byteOffset": 24,
      "componentType": 5125,
      "count": 11994,
      "max": [
        2537
      ],
      "min": [
        0
      ],
      "type": "SCALAR"
    }
  ],
  "asset": {
    "extras": {
      "author": "Skipper Research & Development, LLC (https://sketchfab.com/skipperrandd)",
      "license": "CC-BY-4.0 (http://creativecommons.org/licenses/by/4.0/)",
      "source": "https://sketchfab.com/models/9967c4374ec7403bb1fcfaf5d3141503",
      "title": "Sci-Fi 01 - Graviton Deck"
    },
    "generator": "Sketchfab-3.36.2",
    "version": "2.0"
  },
  "bufferViews": [
    {
      "buffer": 0,
      "byteLength": 48000,
      "byteOffset": 0,
      "name": "floatBufferViews",
      "target": 34963
    },
    {
      "buffer": 0,
      "byteLength": 40640,
      "byteOffset": 48000,
      "byteStride": 8,
      "name": "floatBufferViews",
      "target": 34962
    },
    {
      "buffer": 0,
      "byteLength": 61008,
      "byteOffset": 88640,
      "byteStride": 12,
      "name": "floatBufferViews",
      "target": 34962
    },
    {
      "buffer": 0,
      "byteLength": 40672,
      "byteOffset": 149648,
      "byteStride": 16,
      "name": "floatBufferViews",
      "target": 34962
    }
  ],
  "buffers": [
    {
      "byteLength": 190320,
      "uri": "scene.bin"
    }
  ],
  "images": [
    {
      "uri": "textures/gravitondeck_01_A_MAT_metallicRoughness.png"
    },
    {
      "uri": "textures/gravitondeck_01_A_MAT_baseColor.png"
    },
    {
      "uri": "textures/gravitondeck_01_A_MAT_normal.png"
    },
    {
      "uri": "textures/gravitondeck_01_A_MAT_emissive.png"
    },
    {
      "uri": "textures/ground_A_MAT_baseColor.png"
    }
  ],
  "materials": [
    {
      "alphaMode": "BLEND",
      "doubleSided": false,
      "name": "ground_A_MAT",
      "pbrMetallicRoughness": {
        "baseColorFactor": [
          1,
          1,
          1,
          0.68102729849999999
        ],
        "baseColorTexture": {
          "index": 4,
          "texCoord": 0
        },
        "metallicFactor": 0,
        "roughnessFactor": 1
      }
    },
    {
      "doubleSided": false,
      "emissiveFactor": [
        1,
        1,
        1
      ],
      "emissiveTexture": {
        "index": 3,
        "texCoord": 0
      },
      "name": "gravitondeck_01_A_MAT",
      "normalTexture": {
        "index": 2,
        "scale": 1,
        "texCoord": 0
      },
      "occlusionTexture": {
        "index": 0,
        "strength": 1,
        "texCoord": 0
      },
      "pbrMetallicRoughness": {
        "baseColorFactor": [
          1,
          1,
          1,
          1
        ],
        "baseColorTexture": {
          "index": 1,
          "texCoord": 0
        },
        "metallicFactor": 1,
        "metallicRoughnessTexture": {
          "index": 0,
          "texCoord": 0
        },
        "roughnessFactor": 1
      }
    }
  ],
  "meshes": [
    {
      "name": "ground_low_ground_A_MAT_0",
      "primitives": [
        {
          "attributes": {
            "NORMAL": 1,
            "POSITION": 0,
            "TANGENT": 2,
            "TEXCOORD_0": 3
          },
          "indices": 4,
          "material": 0,
          "mode": 4
        }
      ]
    },
    {
      "name": "gravitondeck_01_timesurfers.001_gravitondeck_01_A_MAT_0",
      "primitives": [
        {
          "attributes": {
            "NORMAL": 6,
            "POSITION": 5,
            "TANGENT": 7,
            "TEXCOORD_0": 8,
            "TEXCOORD_1": 9
          },
          "indices": 10,
          "material": 1,
          "mode": 4
        }
      ]
    }
  ],
  "nodes": [
    {
      "children": [
        1
      ],
      "name": "RootNode (gltf orientation matrix)",
      "rotation": [
        -0.70710678118654746,
        -0,
        -0,
        0.70710678118654757
      ]
    },
    {
      "children": [
        2
      ],
      "name": "RootNode (model correction matrix)"
    },
    {
      "children": [
        3
      ],
      "matrix": [
        1,
        0,
        0,
        0,
        0,
        0,
        1,
        0,
        0,
        -1,
        0,
        0,
        0,
        0,
        0,
        1
      ],
      "name": "e61b130517b44a4e9c2eddbf63c7bb85.fbx"
    },
    {
      "children": [
        4
      ],
      "name": "RootNode"
    },
    {
      "children": [
        5,
        7
      ],
      "matrix": [
        1,
        0,
        0,
        0,
        0,
        0.99999999999998668,
        1.6292067073209113e-07,
        0,
        0,
        -1.6292067073209113e-07,
        0.99999999999998668,
        0,
        0,
        12.034148216247559,
        0,
        1
      ],
      "name": "gravitondeck_01_timesurfers"
    },
    {
      "children": [
        6
      ],
      "matrix": [
        1.9458943605422974,
        0,
        0,
        0,
        0,
        1.9458945989608765,
        1.4210855721053629e-14,
        0,
        0,
        -1.421085397988428e-14,
        1.9458943605422974,
        0,
        -97.886016845703125,
        -11.86369800567627,
        -96.967887878417969,
        1
      ],
      "name": "ground_low"
    },
    {
      "mesh": 0,
      "name": "ground_low_ground_A_MAT_0"
    },
    {
      "children": [
        8
      ],
      "matrix": [
        1,
        0,
        0,
        0,
        0,
        1,
        -7.1054273311312215e-15,
        0,
        0,
        7.1054273311312215e-15,
        1,
        0,
        0,
        -12.034149169921875,
        0,
        1
      ],
      "name": "gravitondeck_01_timesurfers.001"
    },
    {
      "mesh": 1,
      "name": "gravitondeck_01_timesurfers.001_gravitondeck_01_A_MAT_0"
    }
  ],
  "samplers": [
    {
      "magFilter": 9729,
      "minFilter": 9987,
      "wrapS": 10497,
      "wrapT": 10497
    }
  ],
  "scene": 0,
  "scenes": [
    {
      "name": "OSG_Scene",
      "nodes": [
        0
      ]
    }
  ],
  "textures": [
    {
      "sampler": 0,
      "source": 0
    },
    {
      "sampler": 0,
      "source": 1
    },
    {
      "sampler": 0,
      "source": 2
    },
    {
      "sampler": 0,
      "source": 3
    },
    {
      "sampler": 0,
      "source": 4
    }
  ]
}

